<svg width="463" height="75" viewBox="0 0 463 75" fill="none" xmlns="http://www.w3.org/2000/svg">
<path d="M-0.000152588 0.453857H72.0569V72.5022H-0.000152588V0.453857Z" fill="white"/>
<path fill-rule="evenodd" clip-rule="evenodd" d="M72.0569 0.453857H-0.000152588V72.5109H72.0569L72.0569 0.453857ZM28.3753 28.4441H13.5957L7.90494 34.1566H33.7102V8.35675L28.3753 13.6944V28.4441ZM44.0618 14.0502V28.819L58.8143 28.8271L64.1519 34.1566H38.3521V8.35675L44.0618 14.0502ZM43.687 44.514H58.4584L64.1519 38.7934H38.3521V64.6013L43.6815 59.2637L43.687 44.514ZM27.9923 58.9079V44.131H13.2425L7.90494 38.7934H33.7102V64.6013L27.9923 58.9079Z" fill="#0072CE"/>
<path d="M127.687 21.6416H113.877V60.253H104.259V21.6416H90.4494V12.1605H127.687V21.6416Z" fill="#53565A"/>
<path d="M154.813 25.9699L152.34 35.2449C150.645 33.6876 148.813 32.909 146.844 32.909C144.828 32.909 143.294 33.4815 142.241 34.6266C141.233 35.7716 140.729 37.8098 140.729 40.7412V60.253H131.248V24.1836H140.729V26.5882C142.744 24.4813 145.218 23.4279 148.149 23.4279C150.989 23.4279 153.21 24.2752 154.813 25.9699Z" fill="#53565A"/>
<path d="M167.437 12.0231C168.536 13.0765 169.086 14.3361 169.086 15.8018C169.086 17.2674 168.536 18.5499 167.437 19.6492C166.383 20.7026 165.124 21.2294 163.658 21.2294C162.192 21.2294 160.91 20.7026 159.811 19.6492C158.757 18.5499 158.23 17.2674 158.23 15.8018C158.23 14.3361 158.757 13.0765 159.811 12.0231C160.91 10.9238 162.192 10.3742 163.658 10.3742C165.124 10.3742 166.383 10.9238 167.437 12.0231ZM168.398 60.253H158.917V24.1836H168.398V60.253Z" fill="#53565A"/>
<path d="M206.819 60.253H197.338V57.8484C195.323 59.9553 192.506 61.0088 188.888 61.0088C184.399 61.0088 181.056 59.566 178.857 56.6804C176.658 53.7949 175.559 49.7414 175.559 44.5199V24.1836H185.04V43.6954C185.04 46.81 185.544 48.9856 186.552 50.2223C187.559 51.459 189.094 52.0773 191.155 52.0773C193.216 52.0773 194.75 51.459 195.758 50.2223C196.812 48.9856 197.338 46.8787 197.338 43.9016V24.1836H206.819V60.253Z" fill="#53565A"/>
<path d="M265.629 60.253H256.148V40.7412C256.148 37.6266 255.69 35.451 254.773 34.2143C253.857 32.9777 252.392 32.3593 250.376 32.3593C248.361 32.3593 246.873 32.9777 245.911 34.2143C244.995 35.4052 244.537 37.5121 244.537 40.5351V60.253H235.056V40.7412C235.056 37.6266 234.598 35.451 233.681 34.2143C232.765 32.9777 231.3 32.3593 229.284 32.3593C227.269 32.3593 225.781 32.9777 224.819 34.2143C223.903 35.4052 223.445 37.5121 223.445 40.5351V60.253H213.964V24.1836H223.445V26.5882C225.46 24.4813 228.094 23.4279 231.346 23.4279C233.636 23.4279 235.514 23.7943 236.979 24.5271C238.491 25.2142 239.933 26.3821 241.308 28.031C244.285 24.9623 248.109 23.4279 252.781 23.4279C261.346 23.4279 265.629 28.9242 265.629 39.9167V60.253Z" fill="#53565A"/>
<path d="M304.23 42.6649C304.23 48.1612 302.994 52.604 300.52 55.9934C298.047 59.337 294.612 61.0088 290.215 61.0088C287.192 61.0088 284.65 60.0698 282.589 58.1919V68.7723L273.108 73.5128V24.1836H282.589V26.4508C284.879 24.4355 287.421 23.4279 290.215 23.4279C294.337 23.4279 297.704 25.031 300.314 28.2371C302.925 31.4433 304.23 36.2525 304.23 42.6649ZM294.612 42.871C294.612 35.8632 292.551 32.3593 288.429 32.3593C286.093 32.3593 284.146 33.367 282.589 35.3823V48.9856C284.1 51.0467 286.23 52.0773 288.978 52.0773C292.734 52.0773 294.612 49.0085 294.612 42.871Z" fill="#53565A"/>
<path d="M341.572 60.253H332.091V40.7412C332.091 37.6266 331.588 35.451 330.58 34.2143C329.572 32.9777 328.038 32.3593 325.977 32.3593C323.916 32.3593 322.358 32.9777 321.305 34.2143C320.297 35.451 319.793 37.5579 319.793 40.5351V60.253H310.312V14.9086L319.793 10.1681V26.5882C321.809 24.4813 324.626 23.4279 328.244 23.4279C332.733 23.4279 336.076 24.8706 338.275 27.7562C340.473 30.6418 341.572 34.6953 341.572 39.9167V60.253Z" fill="#53565A"/>
<path d="M387.15 27.5092C387.15 32.7993 385.577 36.7441 382.43 39.3435C379.283 41.9429 375.088 43.2427 369.843 43.2427H359.309V60.2074H349.732V12.323H370.664C375.453 12.323 379.397 13.6455 382.499 16.2906C385.6 18.89 387.15 22.6295 387.15 27.5092ZM377.3 27.7144C377.3 23.6556 374.974 21.6263 370.322 21.6263H359.309V33.9394H370.459C375.019 33.9394 377.3 31.8644 377.3 27.7144Z" fill="#0072CE"/>
<path d="M421.811 60.2074H412.371V57.8132C410.364 59.911 407.674 60.9599 404.299 60.9599C400.65 60.9599 397.504 59.8654 394.859 57.6764C392.214 55.4418 390.891 52.2723 390.891 48.1679C390.891 44.3372 392.237 41.3957 394.927 39.3435C397.663 37.2913 401.175 36.2652 405.462 36.2652C408.152 36.2652 410.455 36.7441 412.371 37.7017V35.9232C412.371 34.6007 411.915 33.5062 411.003 32.6397C410.136 31.7732 408.882 31.34 407.24 31.34C405.142 31.34 403.387 31.5224 401.973 31.8872C400.605 32.2064 399.077 32.8221 397.39 33.7342L393.764 27.1672C397.96 24.7501 402.452 23.5416 407.24 23.5416C411.664 23.5416 415.198 24.6589 417.843 26.8935C420.488 29.0825 421.811 32.1608 421.811 36.1284V60.2074ZM412.371 49.6728V45.158C410.775 44.1547 408.586 43.6531 405.804 43.6531C402.155 43.6531 400.331 45.158 400.331 48.1679C400.331 49.5816 400.764 50.7445 401.631 51.6566C402.543 52.5231 403.934 52.9563 405.804 52.9563C407.263 52.9563 408.586 52.6371 409.771 51.9987C410.957 51.3602 411.824 50.5849 412.371 49.6728Z" fill="#0072CE"/>
<path d="M462.626 24.2941L444.157 72.8626H434.853L439.642 60.2074L425.687 24.2941H436.085L441.968 41.6009C442.88 44.2459 443.655 46.8682 444.294 49.4676C444.795 47.2786 445.57 44.6564 446.619 41.6009L452.502 24.2941H462.626Z" fill="#0072CE"/>
</svg>
